# xmcd
#
# Track frame offsets:
#	150
#	16176
#	35357
#	61897
#	78301
#	97379
#	112978
#	129464
#	143971
#	160679
#	179524
#	196799
#	216361
#	231919
#	249622
#	263832
#	277378
#	291151
#	312733
#	326596
#
# Disc length: 4549 seconds
#
# Revision: 1
# Processed by: cddbd v1.5.2PL0 Copyright (c) Steve Scherf et al.
# Submitted via: audiograbber 1.83.01
#
DISCID=3111c314
DTITLE=Linedance - Linedance
DYEAR=2005
DGENRE=Country
TTITLE0=Chris Anderson and DJ Robbie - Last night
TTITLE1=Keith Urban - Who wouldn´t wanna be me
TTITLE2=Keney Chesney - One step up
TTITLE3=Lacy C. Dalton - Black coffee
TTITLE4=Lonestar - I´m already there
TTITLE5=Bellamy Brothers - Redneck girl
TTITLE6=Dixie Chicks - Sin wagon
TTITLE7=Eddie Rabbit - I love a rainy night
TTITLE8=Gretchen Wilson - Redneck women
TTITLE9=Jimmy Wayne - The rabbit
TTITLE10=Johnny Cash - Ghostriders in the sky
TTITLE11=Kenny Rogers - Coward of the county
TTITLE12=Martin McBride - Independence day
TTITLE13=Rascal Flats - My worst star
TTITLE14=Shania Twain - No one needs to know
TTITLE15=Tanya Tucker - Trail of tears
TTITLE16=Dwaight Toakam - Guitar Caddillacs
TTITLE17=Garth Brooks - That summer
TTITLE18=Kingston Trio - Tom Dooley
TTITLE19=Lorne Green - Ringo
EXTD=
EXTT0=
EXTT1=
EXTT2=
EXTT3=
EXTT4=
EXTT5=
EXTT6=
EXTT7=
EXTT8=
EXTT9=
EXTT10=
EXTT11=
EXTT12=
EXTT13=
EXTT14=
EXTT15=
EXTT16=
EXTT17=
EXTT18=
EXTT19=
PLAYORDER=
